<?xml version="1.0" standalone="no"?>
<!DOCTYPE svg PUBLIC "-//W3C//DTD SVG 20010904//EN"
 "http://www.w3.org/TR/2001/REC-SVG-20010904/DTD/svg10.dtd">
<svg version="1.0" xmlns="http://www.w3.org/2000/svg"
 width="528.000000pt" height="432.000000pt" viewBox="0 0 528.000000 432.000000"
 preserveAspectRatio="xMidYMid meet">

<g transform="translate(0.000000,432.000000) scale(0.100000,-0.100000)"
fill="#000000" stroke="none">
<path d="M1005 3208 c-3 -57 -5 -155 -3 -218 l3 -115 414 -3 c317 -2 417 -5
423 -15 12 -18 10 -1069 -3 -1188 -21 -209 -101 -304 -273 -328 -153 -21 -285
30 -422 161 -46 44 -88 77 -94 73 -13 -8 -269 -314 -281 -338 -8 -14 3 -30 64
-90 119 -116 262 -191 456 -240 121 -30 365 -30 498 1 172 39 286 98 387 198
78 79 121 150 162 272 46 137 54 229 54 638 0 198 3 469 7 602 l6 242 364 0
363 0 0 -963 0 -964 188 -6 c103 -4 226 -7 275 -7 l87 0 0 970 0 970 178 0
c97 0 268 3 380 7 l202 6 0 219 0 218 -1714 0 -1714 0 -7 -102z"/>
</g>
</svg>
